<svg width="27" height="18" viewBox="0 0 27 18" fill="none" xmlns="http://www.w3.org/2000/svg">
<g clip-path="url(#clip0)">
<path d="M19.7999 7.44207C17.7236 7.44207 16.0346 5.77285 16.0346 3.72103C16.0346 1.66922 17.7237 0 19.7999 0C21.876 0 23.5651 1.66922 23.5651 3.72103C23.5651 5.77285 21.8761 7.44207 19.7999 7.44207ZM19.7999 2.37405C19.0268 2.37405 18.3979 2.97831 18.3979 3.72103C18.3979 4.46376 19.0268 5.06802 19.7999 5.06802C20.5729 5.06802 21.2018 4.46376 21.2018 3.72103C21.2018 2.97831 20.5729 2.37405 19.7999 2.37405Z" fill="white"/>
<path d="M25.8183 18C25.8178 18 25.8173 18 25.8169 18H1.18164C0.739481 18 0.334285 17.752 0.131548 17.3573C-0.0711883 16.9626 -0.0376306 16.4871 0.218674 16.1251L8.57139 4.32651C8.79121 4.01601 9.14604 3.83036 9.52532 3.82743C9.90217 3.8245 10.2623 4.0047 10.4868 4.31185L16.3622 12.3492L19.7742 9.02317C20.0172 8.78615 20.3497 8.66534 20.6875 8.69145C21.0252 8.71748 21.3356 8.88784 21.5398 9.15933L26.7289 16.0565C26.8983 16.2619 27 16.5255 27 16.8131C27 17.4686 26.4709 18 25.8183 18ZM3.47198 15.6261H23.4427L20.4605 11.6622L17.0352 15.0014C16.7901 15.2403 16.454 15.3611 16.1137 15.3324C15.7733 15.3038 15.4619 15.1286 15.2598 14.8521L9.54957 7.04093L3.47198 15.6261Z" fill="white"/>
</g>
<defs>
<clipPath id="clip0">
<rect width="27" height="18" fill="white"/>
</clipPath>
</defs>
</svg>
