<svg width="55" height="55" viewBox="0 0 55 55" fill="none" xmlns="http://www.w3.org/2000/svg">
<circle cx="27.5" cy="27.5" r="27.5" fill="#FF7931"/>
<g clip-path="url(#clip0)">
<path d="M34.7999 23.4421C32.7236 23.4421 31.0346 21.7729 31.0346 19.721C31.0346 17.6692 32.7237 16 34.7999 16C36.876 16 38.5651 17.6692 38.5651 19.721C38.5651 21.7729 36.8761 23.4421 34.7999 23.4421ZM34.7999 18.374C34.0268 18.374 33.3979 18.9783 33.3979 19.721C33.3979 20.4638 34.0268 21.068 34.7999 21.068C35.5729 21.068 36.2018 20.4638 36.2018 19.721C36.2018 18.9783 35.5729 18.374 34.7999 18.374Z" fill="white"/>
<path d="M40.8183 34C40.8178 34 40.8173 34 40.8169 34H16.1816C15.7395 34 15.3343 33.752 15.1315 33.3573C14.9288 32.9626 14.9624 32.4871 15.2187 32.1251L23.5714 20.3265C23.7912 20.016 24.146 19.8304 24.5253 19.8274C24.9022 19.8245 25.2623 20.0047 25.4868 20.3118L31.3622 28.3492L34.7742 25.0232C35.0172 24.7861 35.3497 24.6653 35.6875 24.6914C36.0252 24.7175 36.3356 24.8878 36.5398 25.1593L41.7289 32.0565C41.8983 32.2619 42 32.5255 42 32.8131C42 33.4686 41.4709 34 40.8183 34ZM18.472 31.6261H38.4427L35.4605 27.6622L32.0352 31.0014C31.7901 31.2403 31.454 31.3611 31.1137 31.3324C30.7733 31.3038 30.4619 31.1286 30.2598 30.8521L24.5496 23.0409L18.472 31.6261Z" fill="white"/>
</g>
<defs>
<clipPath id="clip0">
<rect x="15" y="16" width="27" height="18" fill="white"/>
</clipPath>
</defs>
</svg>
